<?xml version="1.0" ?>
<!-- Uploaded to: SVG Repo, www.svgrepo.com, Generator: SVG Repo Mixer Tools -->
<svg width="800px" height="800px" viewBox="0 0 512 512" version="1.1" xml:space="preserve" xmlns="http://www.w3.org/2000/svg" xmlns:xlink="http://www.w3.org/1999/xlink">
<style type="text/css">
	.st0{fill:#16ADE1;}
	.st1{fill:#1B3954;}
</style>
<g id="Layer_1"/>
<g id="Layer_2">
<g>
<g>
<g>
<g>
<path class="st0" d="M215.93,268.31c-1.86,0-3.64-0.74-4.95-2.05l-23.16-23.16c-2.73-2.73-2.73-7.17,0-9.9l5.03-5.03       l-2.54-11.71c-0.5-2.33,0.21-4.75,1.89-6.43l10.86-10.86c2.73-2.73,7.17-2.73,9.9,0l41.94,41.94c1.31,1.31,2.05,3.09,2.05,4.95       s-0.74,3.64-2.05,4.95l-10.86,10.86c-1.68,1.68-4.11,2.4-6.43,1.89l-11.71-2.54l-5.03,5.03       C219.57,267.57,217.79,268.31,215.93,268.31z M202.67,238.15l13.26,13.26l2.78-2.78c1.68-1.68,4.11-2.4,6.43-1.89l11.71,2.54       l3.21-3.21l-32.04-32.04l-3.21,3.21l2.54,11.71c0.5,2.33-0.21,4.75-1.89,6.43L202.67,238.15z"/>
</g>
<g>
<path class="st0" d="M130.33,325.69c-0.26,0-0.51-0.01-0.77-0.04c-2.11-0.23-4-1.41-5.14-3.21       c-11.9-18.77-9.12-43.82,6.63-59.56l21.75-21.21c0.03-0.03,0.07-0.07,0.1-0.1l17.26-16.16l5.16-4.94       c2.75-2.63,7.1-2.59,9.79,0.1l49.33,49.33c1.33,1.33,2.07,3.14,2.05,5.02c-0.02,1.88-0.8,3.68-2.16,4.98l-44.16,42.3       c-2.75,2.64-7.1,2.59-9.79-0.1l-21.78-21.78l-23.31,23.31C133.96,324.96,132.17,325.69,130.33,325.69z M158.59,283.43       c1.79,0,3.58,0.68,4.95,2.05l21.89,21.89l34.05-32.62l-39.43-39.43l-0.24,0.23c-0.02,0.02-0.04,0.04-0.06,0.05l-17.23,16.14       l-21.63,21.1c-8.9,8.9-11.93,22.09-8.42,33.82l21.18-21.18C155,284.12,156.8,283.43,158.59,283.43z M174.96,230.5L174.96,230.5       L174.96,230.5z"/>
</g>
<g>
<path class="st0" d="M324.11,460.12c-10.54,0-20.47-5.12-26.58-13.69l-81.4-110.67c-2.29-3.11-1.62-7.5,1.49-9.79       c3.11-2.29,7.5-1.62,9.79,1.49l81.44,110.71c0.02,0.03,0.05,0.06,0.07,0.1c3.54,4.98,9.07,7.84,15.19,7.84       c4.96,0,9.62-1.94,13.14-5.45c3.52-3.51,5.45-8.19,5.45-13.16s-1.94-9.64-5.45-13.16L231.03,308.13l-14.53,14.53       c-2.73,2.73-7.17,2.73-9.9,0c-2.73-2.73-2.73-7.17,0-9.9l19.48-19.48c2.73-2.73,7.17-2.73,9.9,0l111.16,111.16       c6.16,6.16,9.55,14.35,9.55,23.06c0,8.71-3.39,16.9-9.55,23.06C340.99,456.72,332.81,460.12,324.11,460.12z"/>
</g>
<g>
<path class="st0" d="M196.96,460.12c-8.12,0-15.96-3.23-21.73-9c-11.97-11.97-11.97-31.45,0-43.42l46.01-46.01       c2.73-2.73,7.17-2.73,9.9,0c2.73,2.73,2.73,7.17,0,9.9l-46.01,46.01c-6.51,6.52-6.51,17.12,0,23.63       c3.41,3.41,7.92,5.14,12.73,4.88c4.8-0.26,9.11-2.47,12.12-6.23l43.16-53.79l-20.29-27.59c-2.29-3.11-1.62-7.5,1.49-9.79       c3.12-2.29,7.5-1.62,9.79,1.49l23.48,31.92c1.88,2.55,1.81,6.05-0.18,8.53l-46.52,57.99c-5.45,6.8-13.57,10.97-22.27,11.45       C198.07,460.1,197.51,460.12,196.96,460.12z"/>
</g>
<g>
<path class="st0" d="M287.38,361.58c-1.79,0-3.58-0.68-4.95-2.05l-24.56-24.56c-2.73-2.73-2.73-7.17,0-9.9l30.48-30.49       l-7.72-28.81c-0.65-2.42,0.04-4.99,1.81-6.76l36.83-36.83c1.77-1.77,4.35-2.46,6.76-1.81l26.29,7.05       c2.42,0.65,4.3,2.54,4.95,4.95c0.65,2.42-0.04,4.99-1.81,6.76l-26.84,26.84l4.34,16.21l16.21,4.34l26.84-26.84       c1.77-1.77,4.35-2.46,6.76-1.81c2.42,0.65,4.3,2.53,4.95,4.95l7.05,26.29c0.65,2.42-0.04,4.99-1.81,6.76l-36.83,36.83       c-1.77,1.77-4.35,2.46-6.76,1.81l-30.38-8.14l-15.6,19.45c-2.42,3.01-6.83,3.5-9.84,1.08c-3.02-2.42-3.5-6.83-1.08-9.84       l18.46-23.01c1.74-2.17,4.59-3.1,7.27-2.38l30.89,8.28l31.11-31.11l-2.86-10.68l-21.12,21.12c-1.77,1.77-4.34,2.46-6.76,1.81       l-24.02-6.43c-2.42-0.65-4.3-2.54-4.95-4.95l-6.43-24.02c-0.65-2.42,0.04-4.99,1.81-6.76l21.12-21.12l-10.68-2.86l-31.11,31.11       l7.72,28.81c0.65,2.42-0.04,4.99-1.81,6.76l-28.39,28.4l19.61,19.61c2.73,2.73,2.73,7.17,0,9.9       C290.96,360.89,289.17,361.58,287.38,361.58z"/>
</g>
</g>
<g>
<g>
<path class="st1" d="M491.5,249.42h-76.43c-1.86,0-3.65-0.74-4.97-2.07L256,92.2L101.9,247.35c-1.31,1.32-3.1,2.07-4.97,2.07       H20.5c-2.83,0-5.38-1.7-6.46-4.31c-1.09-2.61-0.5-5.62,1.5-7.62L207.9,43.78c1.31-1.32,3.1-2.07,4.97-2.07h86.26       c1.86,0,3.65,0.74,4.97,2.07l26.47,26.66c2.72,2.74,2.71,7.17-0.03,9.9c-2.74,2.72-7.18,2.71-9.9-0.03l-24.42-24.59h-80.44       L37.32,235.42h56.7L251.03,77.33c1.31-1.32,3.1-2.07,4.97-2.07s3.65,0.74,4.97,2.07l157.01,158.09h56.7L359.69,119.63       c-2.72-2.74-2.71-7.18,0.03-9.9s7.18-2.71,9.9,0.03l126.84,127.72c1.99,2.01,2.58,5.01,1.5,7.62       C496.88,247.72,494.33,249.42,491.5,249.42z"/>
</g>
<g>
<path class="st1" d="M347.43,104.47c-1.78,0-3.57-0.68-4.93-2.03c-2.74-2.72-2.76-7.16-0.04-9.9l0.14-0.14       c2.72-2.74,7.16-2.76,9.9-0.04c2.74,2.72,2.76,7.16,0.04,9.9l-0.14,0.14C351.03,103.78,349.23,104.47,347.43,104.47z"/>
</g>
<g>
<path class="st1" d="M94.68,376.17c-1.84,0-3.64-0.75-4.95-2.05c-0.32-0.32-0.61-0.68-0.87-1.06       c-0.25-0.38-0.47-0.79-0.64-1.21c-0.18-0.43-0.31-0.87-0.4-1.31c-0.09-0.45-0.14-0.92-0.14-1.37c0-0.46,0.05-0.92,0.14-1.37       c0.09-0.44,0.22-0.89,0.4-1.31c0.17-0.42,0.39-0.83,0.64-1.21c0.26-0.38,0.55-0.74,0.87-1.06c0.33-0.32,0.68-0.61,1.07-0.87       c0.38-0.25,0.78-0.47,1.21-0.64c0.42-0.18,0.86-0.31,1.31-0.4c0.9-0.18,1.83-0.19,2.73,0c0.45,0.09,0.89,0.22,1.31,0.4       c0.42,0.17,0.83,0.39,1.21,0.64c0.38,0.26,0.74,0.55,1.06,0.87c0.33,0.32,0.62,0.68,0.87,1.06c0.26,0.38,0.47,0.79,0.65,1.21       c0.17,0.42,0.31,0.87,0.4,1.31c0.09,0.45,0.13,0.91,0.13,1.37c0,0.45-0.04,0.92-0.13,1.37c-0.09,0.44-0.23,0.88-0.4,1.31       c-0.18,0.42-0.39,0.83-0.65,1.21c-0.25,0.38-0.54,0.74-0.87,1.06c-0.32,0.32-0.68,0.61-1.06,0.87       c-0.38,0.25-0.79,0.47-1.21,0.64c-0.42,0.18-0.86,0.31-1.31,0.4C95.6,376.12,95.14,376.17,94.68,376.17z"/>
</g>
<g>
<path class="st1" d="M417.32,498.5H94.68c-3.87,0-7-3.13-7-7v-91.52c0-3.87,3.13-7,7-7s7,3.13,7,7v84.52h308.63V302.62       c0-3.87,3.13-7,7-7s7,3.13,7,7V491.5C424.32,495.37,421.18,498.5,417.32,498.5z"/>
</g>
<g>
<path class="st1" d="M94.68,345.36c-3.87,0-7-3.13-7-7v-95.94c0-3.63,2.76-6.62,6.3-6.97L251.03,77.33       c1.31-1.32,3.1-2.07,4.97-2.07s3.65,0.74,4.97,2.07l157.05,158.12c3.54,0.35,6.3,3.33,6.3,6.97c0,3.87-3.13,7-7,7h-2.25       c-1.86,0-3.65-0.74-4.97-2.07L256,92.2L101.9,247.35c-0.07,0.07-0.14,0.14-0.22,0.21v90.8       C101.68,342.23,98.55,345.36,94.68,345.36z"/>
</g>
</g>
</g>
</g>
</g>
</svg>