<?xml version="1.0" ?>
<!-- Uploaded to: SVG Repo, www.svgrepo.com, Generator: SVG Repo Mixer Tools -->
<svg width="800px" height="800px" viewBox="0 0 512 512" version="1.1" xml:space="preserve" xmlns="http://www.w3.org/2000/svg" xmlns:xlink="http://www.w3.org/1999/xlink">
<style type="text/css">
	.st0{fill:#16ADE1;}
	.st1{fill:#1B3954;}
</style>
<g id="Layer_1"/>
<g id="Layer_2">
<g>
<g>
<g>
<g>
<path class="st1" d="M167.68,498.5c-0.46,0-0.92-0.05-1.37-0.14c-0.44-0.09-0.88-0.22-1.31-0.4c-0.42-0.17-0.83-0.39-1.2-0.64       c-0.39-0.26-0.75-0.55-1.07-0.87c-1.3-1.3-2.05-3.11-2.05-4.95c0-0.46,0.05-0.92,0.14-1.37c0.09-0.44,0.22-0.88,0.4-1.31       c0.17-0.42,0.39-0.83,0.64-1.21c0.26-0.38,0.55-0.74,0.87-1.06c0.32-0.32,0.68-0.62,1.06-0.87c0.38-0.25,0.79-0.47,1.21-0.64       c0.42-0.18,0.87-0.31,1.31-0.4c0.9-0.18,1.84-0.18,2.74,0c0.45,0.09,0.89,0.22,1.31,0.4c0.42,0.17,0.83,0.39,1.21,0.64       s0.74,0.55,1.06,0.87s0.62,0.68,0.87,1.06c0.25,0.38,0.47,0.79,0.64,1.21c0.18,0.43,0.31,0.87,0.4,1.31       c0.09,0.45,0.14,0.91,0.14,1.37c0,1.84-0.75,3.65-2.05,4.95c-0.32,0.32-0.68,0.61-1.06,0.87c-0.38,0.25-0.79,0.47-1.21,0.64       c-0.42,0.18-0.86,0.31-1.31,0.4C168.6,498.45,168.14,498.5,167.68,498.5z"/>
</g>
<g>
<g>
<path class="st0" d="M455.31,194.77h-22.17c-3.87,0-7-3.13-7-7s3.13-7,7-7h22.17c3.87,0,7,3.13,7,7        S459.18,194.77,455.31,194.77z"/>
</g>
<g>
<path class="st0" d="M455.31,246.02h-22.17c-3.87,0-7-3.13-7-7s3.13-7,7-7h22.17c3.87,0,7,3.13,7,7        S459.18,246.02,455.31,246.02z"/>
</g>
<g>
<path class="st0" d="M455.31,297.27h-22.17c-3.87,0-7-3.13-7-7s3.13-7,7-7h22.17c3.87,0,7,3.13,7,7        S459.18,297.27,455.31,297.27z"/>
</g>
<g>
<path class="st0" d="M455.31,348.51h-22.17c-3.87,0-7-3.13-7-7s3.13-7,7-7h22.17c3.87,0,7,3.13,7,7        S459.18,348.51,455.31,348.51z"/>
</g>
<g>
<path class="st0" d="M455.31,399.76h-22.17c-3.87,0-7-3.13-7-7s3.13-7,7-7h22.17c3.87,0,7,3.13,7,7        S459.18,399.76,455.31,399.76z"/>
</g>
<g>
<path class="st0" d="M455.31,451.01h-22.17c-3.87,0-7-3.13-7-7s3.13-7,7-7h22.17c3.87,0,7,3.13,7,7        S459.18,451.01,455.31,451.01z"/>
</g>
</g>
<g>
<path class="st0" d="M379.08,422.27c-3.87,0-7-3.13-7-7V305L268.82,408.27h74.65c3.87,0,7,3.13,7,7s-3.13,7-7,7h-91.55       c-2.83,0-5.38-1.71-6.47-4.32c-1.08-2.62-0.48-5.63,1.52-7.63l127.16-127.16c2-2,5.01-2.6,7.63-1.52       c2.62,1.08,4.32,3.64,4.32,6.47v127.16C386.08,419.13,382.95,422.27,379.08,422.27z"/>
</g>
<g>
<path class="st1" d="M455.31,498.5H190.53c-3.87,0-7-3.13-7-7s3.13-7,7-7h257.78V120.96L84.78,484.5h58.9c3.87,0,7,3.13,7,7       s-3.13,7-7,7h-75.8c-2.83,0-5.38-1.71-6.47-4.32c-1.08-2.62-0.48-5.63,1.52-7.63L450.36,99.12c2-2,5.01-2.6,7.63-1.52       c2.62,1.08,4.32,3.64,4.32,6.47V491.5C462.31,495.37,459.18,498.5,455.31,498.5z"/>
</g>
</g>
<g>
<g>
<path class="st1" d="M382.03,109.62c-1.49,0-2.99-0.47-4.25-1.44c-2.64-2.02-3.48-5.6-2.08-8.56c0.86-2.08,2.67-3.63,4.87-4.14       c2.36-0.55,4.84,0.15,6.55,1.87l0.09,0.09c2.73,2.73,2.73,7.17,0,9.9l-0.23,0.23C385.62,108.93,383.83,109.62,382.03,109.62z"/>
</g>
<g>
<path class="st1" d="M101.15,381.36c-7.44,0-14.87-2.83-20.53-8.49L58.8,351.05c-11.32-11.32-11.32-29.74,0-41.06l19.44-19.44       c2.73-2.73,7.17-2.73,9.9,0c2.73,2.73,2.73,7.17,0,9.9L68.7,319.89c-5.86,5.86-5.86,15.4,0,21.26l21.82,21.82       c5.86,5.86,15.4,5.86,21.26,0l248.63-248.63c-3.66-1.26-7.08-3.35-9.97-6.23c-5.08-5.08-7.85-12.1-7.6-19.28       c-7.17,0.25-14.19-2.52-19.28-7.6c-2.89-2.89-4.98-6.31-6.24-9.97L107.8,280.79c-2.73,2.73-7.17,2.73-9.9,0       c-2.73-2.73-2.73-7.17,0-9.9L320.75,48.04c2.51-2.51,6.49-2.74,9.27-0.55c2.79,2.19,3.5,6.12,1.65,9.14       c-2.88,4.73-2.14,10.78,1.79,14.71c2.4,2.4,5.59,3.66,8.98,3.51c3.84-0.16,7.6,1.31,10.33,4.04c2.74,2.73,4.22,6.5,4.06,10.35       c-0.14,3.4,1.1,6.58,3.51,8.99c3.92,3.92,9.96,4.66,14.69,1.8c3.03-1.83,6.95-1.11,9.13,1.67c2.18,2.79,1.94,6.76-0.56,9.27       L121.68,372.87C116.02,378.53,108.59,381.36,101.15,381.36z"/>
</g>
<g>
<path class="st1" d="M109.68,328.99c-1.79,0-3.58-0.68-4.95-2.05c-2.73-2.73-2.73-7.17,0-9.9l199.2-199.2       c2.73-2.73,7.17-2.73,9.9,0c2.73,2.73,2.73,7.17,0,9.9l-199.2,199.2C113.27,328.3,111.48,328.99,109.68,328.99z"/>
</g>
<g>
<path class="st1" d="M325.54,113.13c-0.45,0-0.91-0.05-1.36-0.14c-0.45-0.09-0.89-0.22-1.31-0.4       c-0.43-0.17-0.83-0.39-1.21-0.64c-0.39-0.26-0.74-0.55-1.07-0.87c-1.3-1.31-2.05-3.11-2.05-4.95c0-0.46,0.05-0.92,0.14-1.37       c0.09-0.45,0.23-0.89,0.4-1.31c0.17-0.42,0.39-0.83,0.64-1.21c0.26-0.38,0.55-0.74,0.87-1.06c0.33-0.32,0.68-0.62,1.07-0.87       c0.38-0.25,0.78-0.47,1.21-0.64c0.42-0.18,0.86-0.31,1.31-0.4c2.27-0.46,4.69,0.28,6.31,1.91c0.33,0.32,0.62,0.68,0.87,1.06       c0.26,0.38,0.47,0.79,0.65,1.21c0.17,0.42,0.31,0.86,0.4,1.31c0.09,0.45,0.13,0.91,0.13,1.37c0,1.84-0.74,3.64-2.05,4.95       C329.19,112.38,327.39,113.13,325.54,113.13z"/>
</g>
<g>
<path class="st0" d="M101.15,381.97c-7.06,0-14.12-2.69-19.5-8.06l0,0l-23.89-23.89c-10.75-10.75-10.75-28.24,0-38.99       l20.48-20.48c2.73-2.73,7.17-2.73,9.9,0l52.98,52.98c2.73,2.73,2.73,7.17,0,9.9l-20.48,20.48       C115.27,379.28,108.21,381.97,101.15,381.97z M91.55,364c5.29,5.29,13.9,5.29,19.19,0l15.53-15.53l-43.08-43.08l-15.53,15.53       c-5.29,5.29-5.29,13.9,0,19.19L91.55,364z"/>
</g>
<g>
<path class="st0" d="M368.81,115.74c-6.72,0-13.35-2.61-18.37-7.63c-5.08-5.08-7.85-12.1-7.6-19.28       c-7.18,0.24-14.19-2.52-19.28-7.6c-8.51-8.51-10.09-21.62-3.85-31.89c0.36-0.59,0.73-1.13,1.11-1.67       c1.31-1.83,3.06-3.3,5.08-4.3c0.28-0.14,0.57-0.27,0.86-0.38c0.79-0.33,1.61-0.59,2.47-0.76l79.58-28.32       c2.54-0.91,5.39-0.27,7.3,1.65s2.55,4.75,1.65,7.3l-28.34,79.61c-0.17,0.82-0.42,1.62-0.73,2.38       c-0.13,0.34-0.27,0.67-0.44,0.98c-0.98,1.97-2.42,3.69-4.17,4.97c-0.58,0.41-1.13,0.78-1.74,1.16       C378.12,114.5,373.45,115.74,368.81,115.74z M343.01,74.83c3.63,0,7.17,1.46,9.76,4.05c2.74,2.73,4.22,6.5,4.06,10.35       c-0.14,3.4,1.1,6.58,3.51,8.99c3.92,3.92,9.96,4.66,14.69,1.8c0.2-0.13,0.45-0.29,0.71-0.46c0,0,0,0,0,0       c0.07-0.43,0.17-0.86,0.32-1.27l23.58-66.24l-66.25,23.58c-0.41,0.15-0.83,0.25-1.26,0.32c-0.16,0.23-0.32,0.47-0.47,0.72       c-2.86,4.7-2.13,10.75,1.8,14.68c2.4,2.4,5.6,3.65,8.98,3.51C342.63,74.83,342.82,74.83,343.01,74.83z M331.57,56.14       C331.57,56.14,331.57,56.14,331.57,56.14C331.57,56.14,331.57,56.14,331.57,56.14z"/>
</g>
<g>
<path class="st0" d="M396.63,68.35c-1.79,0-3.58-0.68-4.95-2.05l-26.31-26.31c-2.73-2.73-2.73-7.17,0-9.9       c2.73-2.73,7.17-2.73,9.9,0l26.31,26.31c2.73,2.73,2.73,7.17,0,9.9C400.21,67.67,398.42,68.35,396.63,68.35z"/>
</g>
</g>
</g>
</g>
</g>
</svg>