<?xml version="1.0" ?>
<!-- Uploaded to: SVG Repo, www.svgrepo.com, Generator: SVG Repo Mixer Tools -->
<svg width="800px" height="800px" viewBox="0 0 512 512" version="1.1" xml:space="preserve" xmlns="http://www.w3.org/2000/svg" xmlns:xlink="http://www.w3.org/1999/xlink">
<style type="text/css">
	.st0{fill:#16ADE1;}
	.st1{fill:#1B3954;}
</style>
<g id="Layer_1"/>
<g id="Layer_2">
<g>
<g>
<g>
<g>
<path class="st1" d="M366.55,106.18c-2.93,0-5.58-1.85-6.58-4.64c-0.87-2.07-0.69-4.45,0.51-6.38       c1.28-2.06,3.53-3.32,5.95-3.32h0.13c3.87,0,7,3.13,7,7v0.33c0,3.5-2.59,6.47-6.06,6.94       C367.17,106.16,366.86,106.18,366.55,106.18z"/>
</g>
<g>
<path class="st1" d="M344.52,363.4h-30.86c-16.01,0-29.03-13.02-29.03-29.03v-27.5c0-3.87,3.13-7,7-7s7,3.13,7,7v27.5       c0,8.29,6.74,15.03,15.03,15.03h30.86c8.29,0,15.03-6.74,15.03-15.03V122.75c-3.48,1.7-7.37,2.64-11.45,2.64       c-7.19,0-14.11-3.01-19.01-8.25c-4.9,5.25-11.82,8.25-19.01,8.25c-4.09,0-7.99-0.94-11.46-2.64v156.31c0,3.87-3.13,7-7,7       s-7-3.13-7-7V103.91c0-3.54,2.65-6.53,6.17-6.95c3.51-0.43,6.8,1.85,7.63,5.3c1.31,5.38,6.1,9.13,11.66,9.13       c3.4,0,6.53-1.37,8.83-3.87c2.6-2.82,6.3-4.45,10.16-4.45c0,0,0.01,0,0.01,0c3.86,0,7.57,1.62,10.18,4.45       c2.3,2.5,5.44,3.87,8.83,3.87c5.54,0,10.33-3.75,11.66-9.11c0.85-3.44,4.13-5.69,7.64-5.27c3.51,0.43,6.16,3.41,6.16,6.95       v230.41C373.55,350.38,360.53,363.4,344.52,363.4z"/>
</g>
<g>
<path class="st1" d="M329.09,313.87c-3.87,0-7-3.13-7-7V165.16c0-3.87,3.13-7,7-7s7,3.13,7,7v141.71       C336.09,310.74,332.96,313.87,329.09,313.87z"/>
</g>
<g>
<path class="st1" d="M329.09,148.59c-1.84,0-3.64-0.74-4.95-2.05c-0.32-0.32-0.61-0.68-0.87-1.06       c-0.25-0.38-0.47-0.78-0.64-1.21c-0.18-0.42-0.31-0.86-0.4-1.31s-0.14-0.91-0.14-1.36c0-0.46,0.05-0.92,0.14-1.37       c0.09-0.45,0.22-0.89,0.4-1.31c0.17-0.42,0.39-0.83,0.64-1.21c0.26-0.38,0.55-0.74,0.87-1.06c1.63-1.63,4.05-2.37,6.32-1.92       c0.45,0.09,0.89,0.23,1.31,0.4c0.42,0.18,0.83,0.39,1.21,0.65c0.38,0.25,0.74,0.54,1.06,0.87c0.32,0.32,0.62,0.68,0.87,1.06       s0.47,0.79,0.65,1.21c0.17,0.42,0.31,0.86,0.4,1.31c0.09,0.45,0.13,0.91,0.13,1.37c0,1.84-0.74,3.64-2.05,4.94       c-0.32,0.33-0.68,0.62-1.06,0.87c-0.38,0.26-0.79,0.47-1.21,0.65c-0.42,0.17-0.86,0.31-1.31,0.4S329.55,148.59,329.09,148.59z"/>
</g>
<g>
<path class="st0" d="M348.1,125.39c-7.19,0-14.11-3.01-19.01-8.25c-4.9,5.25-11.82,8.25-19.01,8.25       c-12.04,0-22.43-8.15-25.27-19.83c-0.16-0.66-0.29-1.31-0.4-1.97c-0.37-2.22-0.17-4.5,0.56-6.64c0.1-0.3,0.21-0.59,0.34-0.88       c0.32-0.79,0.73-1.56,1.21-2.29l36.25-76.31c1.16-2.44,3.62-4,6.32-4l0,0c2.7,0,5.16,1.56,6.32,4l36.25,76.34       c0.46,0.7,0.85,1.44,1.17,2.2c0.15,0.33,0.28,0.67,0.38,1.01c0.7,2.09,0.9,4.32,0.56,6.47c-0.12,0.74-0.26,1.4-0.41,2.05       C370.48,117.27,360.1,125.39,348.1,125.39z M329.09,103.07c3.86,0,7.57,1.62,10.18,4.45c2.3,2.5,5.44,3.87,8.83,3.87       c5.54,0,10.33-3.75,11.66-9.11c0.05-0.23,0.12-0.52,0.17-0.83c0,0,0-0.01,0-0.01c-0.25-0.35-0.48-0.72-0.67-1.12l-30.17-63.51       l-30.17,63.51c-0.19,0.39-0.41,0.76-0.66,1.11c0.05,0.27,0.1,0.55,0.17,0.83c1.3,5.36,6.1,9.11,11.66,9.11       c3.4,0,6.53-1.37,8.83-3.87c2.6-2.82,6.3-4.45,10.16-4.45C329.08,103.07,329.09,103.07,329.09,103.07z M298.32,101.2       C298.32,101.2,298.32,101.2,298.32,101.2C298.32,101.2,298.32,101.2,298.32,101.2z"/>
</g>
<g>
<path class="st0" d="M347.7,66.67h-37.21c-3.87,0-7-3.13-7-7s3.13-7,7-7h37.21c3.87,0,7,3.13,7,7S351.56,66.67,347.7,66.67z"/>
</g>
<g>
<path class="st0" d="M345.98,363.4H312.2c-15.2,0-27.57-12.37-27.57-27.57v-28.96c0-3.87,3.13-7,7-7h74.93c3.87,0,7,3.13,7,7       v28.96C373.55,351.03,361.19,363.4,345.98,363.4z M298.62,313.87v21.96c0,7.48,6.09,13.57,13.57,13.57h33.79       c7.48,0,13.57-6.09,13.57-13.57v-21.96H298.62z"/>
</g>
</g>
<g>
<path class="st0" d="M366.55,410.72c-0.45,0-0.91-0.05-1.36-0.14c-0.45-0.09-0.89-0.22-1.31-0.4c-0.43-0.17-0.83-0.39-1.21-0.64      c-0.39-0.26-0.74-0.55-1.07-0.87c-0.32-0.32-0.61-0.68-0.87-1.07c-0.25-0.37-0.46-0.78-0.64-1.2c-0.17-0.43-0.31-0.87-0.4-1.31      c-0.09-0.45-0.14-0.91-0.14-1.37s0.05-0.92,0.14-1.37c0.09-0.44,0.23-0.89,0.4-1.31c0.18-0.42,0.39-0.83,0.64-1.21      c0.26-0.38,0.55-0.74,0.87-1.06c0.33-0.32,0.68-0.62,1.07-0.87c0.38-0.25,0.78-0.47,1.21-0.64c0.42-0.18,0.86-0.31,1.31-0.4      c0.9-0.18,1.83-0.18,2.73,0c0.45,0.09,0.89,0.22,1.31,0.4c0.42,0.17,0.83,0.39,1.21,0.64s0.74,0.55,1.06,0.87      c0.33,0.32,0.62,0.68,0.87,1.06c0.26,0.38,0.47,0.79,0.65,1.21c0.17,0.42,0.31,0.87,0.4,1.31c0.09,0.45,0.13,0.91,0.13,1.37      s-0.04,0.92-0.13,1.37c-0.09,0.44-0.23,0.88-0.4,1.31c-0.18,0.42-0.39,0.83-0.65,1.2c-0.25,0.39-0.54,0.75-0.87,1.07      c-0.32,0.32-0.68,0.61-1.06,0.87c-0.38,0.25-0.79,0.47-1.21,0.64c-0.42,0.18-0.86,0.31-1.31,0.4S367.01,410.72,366.55,410.72z"/>
</g>
<g>
<path class="st1" d="M86.58,498.5h-2.92c-3.87,0-7-3.13-7-7V25.52c0-3.87,3.13-7,7-7h124.85c3.87,0,7,3.13,7,7V356.4      c0,3.87-3.13,7-7,7s-7-3.13-7-7V32.52H90.66v447.42l113.76-81.9c3.14-2.26,7.51-1.55,9.77,1.59c2.26,3.14,1.55,7.51-1.59,9.77      L90.67,497.18C89.48,498.04,88.05,498.5,86.58,498.5z"/>
</g>
<g>
<path class="st1" d="M129.11,81.36H83.66c-3.87,0-7-3.13-7-7s3.13-7,7-7h45.45c3.87,0,7,3.13,7,7S132.97,81.36,129.11,81.36z"/>
</g>
<g>
<path class="st1" d="M129.11,149.28H83.66c-3.87,0-7-3.13-7-7s3.13-7,7-7h45.45c3.87,0,7,3.13,7,7S132.97,149.28,129.11,149.28z      "/>
</g>
<g>
<path class="st1" d="M129.11,217.19c-0.46,0-0.92-0.05-1.37-0.14c-0.45-0.09-0.89-0.22-1.31-0.4c-0.42-0.17-0.83-0.39-1.21-0.64      s-0.74-0.55-1.06-0.87c-1.31-1.3-2.05-3.11-2.05-4.95c0-0.45,0.04-0.91,0.13-1.37c0.09-0.44,0.23-0.88,0.4-1.31      c0.18-0.42,0.39-0.82,0.65-1.2c0.25-0.39,0.54-0.75,0.87-1.07c0.32-0.32,0.68-0.61,1.06-0.87c0.38-0.25,0.79-0.47,1.21-0.64      c0.42-0.18,0.86-0.31,1.31-0.4c2.27-0.46,4.69,0.28,6.32,1.91c0.32,0.32,0.61,0.68,0.87,1.07c0.25,0.38,0.47,0.78,0.64,1.2      c0.18,0.43,0.31,0.87,0.4,1.31c0.09,0.46,0.14,0.92,0.14,1.37c0,1.84-0.75,3.65-2.05,4.95c-0.33,0.32-0.68,0.62-1.07,0.87      c-0.38,0.25-0.78,0.47-1.21,0.64c-0.42,0.18-0.86,0.31-1.3,0.4C130.02,217.14,129.56,217.19,129.11,217.19z"/>
</g>
<g>
<path class="st1" d="M106.38,217.19H83.66c-3.87,0-7-3.13-7-7s3.13-7,7-7h22.72c3.87,0,7,3.13,7,7S110.25,217.19,106.38,217.19z      "/>
</g>
<g>
<path class="st1" d="M129.11,285.11H83.66c-3.87,0-7-3.13-7-7s3.13-7,7-7h45.45c3.87,0,7,3.13,7,7S132.97,285.11,129.11,285.11z      "/>
</g>
<g>
<path class="st1" d="M129.11,353.02H83.66c-3.87,0-7-3.13-7-7s3.13-7,7-7h45.45c3.87,0,7,3.13,7,7S132.97,353.02,129.11,353.02z      "/>
</g>
<g>
<path class="st1" d="M129.11,420.94H83.66c-3.87,0-7-3.13-7-7s3.13-7,7-7h45.45c3.87,0,7,3.13,7,7S132.97,420.94,129.11,420.94z      "/>
</g>
<g>
<path class="st0" d="M428.34,498.5H86.58c-3.04,0-5.73-1.96-6.66-4.85s0.11-6.05,2.57-7.83l121.93-87.78      c1.19-0.86,2.62-1.32,4.09-1.32h134.55c3.87,0,7,3.13,7,7s-3.13,7-7,7h-132.3L108.28,484.5h313.06v-73.78H389.7      c-3.87,0-7-3.13-7-7s3.13-7,7-7h38.64c3.87,0,7,3.13,7,7v87.78C435.34,495.37,432.21,498.5,428.34,498.5z"/>
</g>
</g>
</g>
</g>
</svg>